<?xml version="1.0" encoding="UTF-8"?>
<svg height="32" id="_Слой_1_копия_" data-name="Слой 1 (копия)" xmlns="http://www.w3.org/2000/svg" viewBox="0 0 1798 359">
  <defs>
    <style>
      .cls-1 {
        fill: #fff;
      }
    </style>
  </defs>
  <path class="cls-1" d="m200,195.55V0H0v359h60v-163.46h50.96l26.37,162.45h63.67l-26.37-162.45h25.37ZM60,60.17h80v75.21H60V60.17Z"/>
  <polygon class="cls-1" points="409 298.83 314 298.83 314 0 254 0 254 298.83 254 359 314 359 469 359 469 358 469 298.83 469 0 409 0 409 298.83"/>
  <polygon class="cls-1" points="571 0 511 0 511 298.83 511 359 571 359 711 359 711 298.83 571 298.83 571 0"/>
  <polygon class="cls-1" points="746 0 746 60.17 746 149.42 746 209.59 746 298.83 746 359 800 359 946 359 946 298.83 800 298.83 800 209.59 915 209.59 915 149.42 800 149.42 800 60.17 946 60.17 946 0 800 0 746 0"/>
  <polygon class="cls-1" points="1061 0 981 0 981 60.17 1061 60.17 1061 359 1121 359 1121 60.17 1201 60.17 1201 0 1121 0 1061 0"/>
  <polygon class="cls-1" points="1798 0 1737.25 0 1666.5 250.16 1595.75 0 1535 0 1636.12 357.56 1636 358 1636.25 358 1696.75 358 1697 358 1696.88 357.56 1798 0"/>
  <polygon class="cls-1" points="1360 0 1280 0 1280 59.17 1360 59.17 1360 359 1420 359 1420 59.17 1500 59.17 1500 0 1420 0 1360 0"/>
  <rect class="cls-1" x="1210" y="298.83" width="60" height="60.17"/>
</svg>